<?xml version="1.0" encoding="utf-8"?>
<!-- Svg Vector Icons : http://www.onlinewebfonts.com/icon -->
<!DOCTYPE svg PUBLIC "-//W3C//DTD SVG 1.1//EN" "http://www.w3.org/Graphics/SVG/1.1/DTD/svg11.dtd">
<svg version="1.1" xmlns="http://www.w3.org/2000/svg" xmlns:xlink="http://www.w3.org/1999/xlink" x="0px" y="0px" viewBox="0 0 1000 1000" enable-background="new 0 0 1000 1000" xml:space="preserve">
<metadata> Svg Vector Icons : http://www.onlinewebfonts.com/icon </metadata>
<g><g transform="translate(0.000000,511.000000) scale(0.100000,-0.100000)"><path d="M5685.6,4719.8c-135.5-20.5-365.5-377.9-517.5-798.8l-67.8-188.9L4022.3,2656L2942.2,1580l-184.8-67.8c-289.5-104.7-583.2-262.8-694.1-373.7c-86.3-86.2-96.5-106.8-96.5-186.9c0-115,86.3-252.6,345-550.3c230-267,946.7-971.3,1160.2-1143.8c267-213.6,371.7-248.5,501.1-168.4c127.3,78,297.8,367.6,447.7,761.8l73.9,193l1069.9,1071.9l1071.9,1071.9l174.5,65.7c242.3,90.4,525.7,232,653,328.6c115,86.2,170.4,168.4,170.4,254.6c0,137.6-199.2,394.3-716.7,922C6197,4491.8,5868.4,4748.5,5685.6,4719.8z M5880.7,4339.9c320.4-238.2,1145.9-1061.7,1377.9-1377.9l88.3-121.2l-73.9-51.3c-82.1-55.4-386.1-201.3-554.4-269l-104.7-39l-611.9,611.9L5390,3705.3l67.8,172.5c108.8,277.2,252.6,550.3,287.5,550.3C5753.4,4428.2,5815,4387.1,5880.7,4339.9z M5806.8,2877.8l564.7-564.7L5369.4,1311L4369.4,310.9l-568.8,570.9l-570.9,568.8l995.9,995.9c548.3,548.3,1000.1,996,1006.2,996C5238,3442.5,5496.7,3187.9,5806.8,2877.8z M3605.5,684.6l603.7-603.7l-73.9-178.7c-90.4-217.7-209.5-457.9-258.7-521.6l-37-45.2l-123.2,92.4C3293.3-253.8,2229.6,853,2260.4,945.4c14.4,45.2,622.2,334.7,712.6,338.8C2989.4,1286.3,3274.8,1015.2,3605.5,684.6z"/><path d="M6071.7,1078.9c-28.7-28.7-39-61.6-34.9-106.8c6.2-57.5,178.7-213.6,1690-1507.3c926.1-792.6,1722.9-1484.7,1768.1-1534c334.7-363.5-59.5-971.3-550.3-852.2c-84.2,18.5-129.4,47.2-221.8,139.6c-63.7,63.7-755.7,860.4-1538.1,1774.2C5946.4,436.2,5757.5,649.7,5708.2,649.7c-88.3,0-147.9-53.4-147.9-131.4c0-61.6,164.3-260.8,1460-1770.1c800.9-936.4,1495-1735.2,1540.1-1776.3c303.9-281.3,800.9-248.5,1104.8,73.9c250.5,264.9,306,638.6,139.6,942.5c-63.7,117.1-195.1,234.1-1823.5,1628.4C6116.9,1216.5,6170.3,1177.5,6071.7,1078.9z"/><path d="M1063.2-2533.2c-59.5-59.6-53.4-152,12.3-203.3c53.4-43.1,71.9-43.1,1312.2-43.1c1168.4,0,1260.8,2,1299.9,37c71.9,59.6,78,137.6,16.4,197.1l-51.3,53.4H2377.5C1131-2492.1,1104.3-2492.1,1063.2-2533.2z"/><path d="M157.6-3414.1c-49.3-39-49.3-45.2-55.4-468.2c-8.2-509.3,2-568.8,115-601.7c53.4-16.4,718.7-20.5,2176.7-16.4l2102.8,6.2l39,49.3c34.9,43.1,39,86.2,39,509.3v460l-51.3,49.3l-49.3,51.3H2340.5C268.5-3375.1,204.9-3377.2,157.6-3414.1z M4287.2-3939.8v-277.2l-1944.7,4.1l-1946.7,6.2l-6.2,273.1l-6.2,271.1h1952.9h1950.8V-3939.8z"/></g></g>
</svg>